<svg xmlns="http://www.w3.org/2000/svg" xmlns:xlink="http://www.w3.org/1999/xlink" viewBox="-352 0 270 325">
  <defs>
    <style>
      .cls-1 {
        clip-path: url(#clip-Hamburger_Menu);
      }

      .cls-2 {
        fill: #75c1c5;
      }

      .cls-3, .cls-4 {
        fill: #fff;
      }

      .cls-3 {
        font-size: 35px;
        font-family: HelveticaNeue-CondensedBold, Helvetica Neue;
        font-weight: 700;
      }

      .cls-5 {
        fill: #35a9d9;
      }
    </style>
    <clipPath id="clip-Hamburger_Menu">
      <rect x="-352" width="270" height="325"/>
    </clipPath>
  </defs>
  <g id="Hamburger_Menu" data-name="Hamburger Menu" class="cls-1">
    <rect class="cls-4" x="-352" width="270" height="325"/>
    <rect id="Rectangle_37" data-name="Rectangle 37" class="cls-2" width="270" height="328" transform="translate(-352 -1)"/>
    <text id="LOCATION_PACKAGES_BUY_NOW" data-name="LOCATION
PACKAGES
BUY NOW" class="cls-3" transform="translate(-323 62)"><tspan x="0" y="0">LOCATION</tspan><tspan x="0" y="64">PACKAGES</tspan><tspan x="0" y="128">BUY NOW</tspan></text>
    <path id="Path_330" data-name="Path 330" class="cls-4" d="M0,13.231H4.14V9.214c0-1.763.046-4.507,1.334-6.194A7.321,7.321,0,0,1,11.9,0a26.39,26.39,0,0,1,7.42.736L18.275,6.869a13.728,13.728,0,0,0-3.342-.506c-1.625,0-3.051.583-3.051,2.177v4.676h6.593l-.46,5.979H11.882V40H4.14V19.226H0V13.231Z" transform="translate(-320 246)"/>
    <g id="nnnJlk_2_" transform="translate(-251 247.589)">
      <g id="Group_95" data-name="Group 95" transform="translate(0 -0.011)">
        <path id="Path_222" data-name="Path 222" class="cls-4" d="M28.872-.009c2.275-.065,4.615,1.17,6.825,2.123a4.641,4.641,0,0,0,2.21.433,4.89,4.89,0,0,0,1.517-.628A1.8,1.8,0,0,1,40.918,1.9c.238.152.087.672.022.888a3.084,3.084,0,0,1-.693.975c-.26.282-.52.563-.78.823-.13.152-.282.282-.412.433-.087.087-.3.433-.433.455.758-.173,1.517-.347,2.3-.52.455-.108,1.127-.412,1.582-.26.672.238-.737,1.3-.932,1.517a24.636,24.636,0,0,1-1.885,1.8,2.061,2.061,0,0,0-.78,1.625,36.959,36.959,0,0,1-.758,6,27.016,27.016,0,0,1-13.8,16.921,22.366,22.366,0,0,1-10.833,2.427c-4.4-.195-8.125-2.275-12.111-3.9.975.412,4.68-.78,5.785-1.018A14.352,14.352,0,0,0,12.319,27.9c.26-.173.5-.412.845-.693C8.636,26.011,5.6,23.541,5.6,21.137h2.73a45.639,45.639,0,0,1-4.311-3.6,6.953,6.953,0,0,1-1.69-5.2c1.127.368,2.08.693,3.055,1.018-.65-1.322-1.647-2.34-2.167-3.553A13.242,13.242,0,0,1,2.4,5.711,6.013,6.013,0,0,1,3.545,1.7c4.81,5.395,10.616,8.6,17.939,9.013-.043-.477-.065-.8-.108-1.1A9.014,9.014,0,0,1,25.6,1.226,6.664,6.664,0,0,1,28.872-.009Z" transform="translate(-1.097 0.011)"/>
        <path id="Path_223" data-name="Path 223" class="cls-5" d="M.325,142.147,0,141.952a1,1,0,0,1,.152-.152,1.727,1.727,0,0,0,.173.347Z" transform="translate(0 -111.076)"/>
      </g>
    </g>
    <g id="Group_139" data-name="Group 139" transform="translate(-154.978 245.182)">
      <path id="Path_224" data-name="Path 224" class="cls-4" d="M11.675,50.028l-.209.418a9.607,9.607,0,0,0-1.372,3.4c-.6,3.907.358,7.307,3.4,9.931a9.922,9.922,0,0,0,8.291,2.356,10.078,10.078,0,0,0,8.112-6.65,10.409,10.409,0,0,0,.447-5.4,9.584,9.584,0,0,0-1.431-3.638c-.239-.418-.209-.477.239-.477H40.007c.268,0,.358.089.358.358,0,6.143.03,12.257-.03,18.4a7.053,7.053,0,0,1-2.893,5.517,6.867,6.867,0,0,1-4.623,1.7c-8.44-.03-16.85-.03-25.29,0A7.171,7.171,0,0,1,3.5,74.662,7.674,7.674,0,0,1,.164,69.8a13.518,13.518,0,0,1-.179-2.923c.03-5.279,0-10.617,0-15.925,0-1.133-.149-.984.984-.984,3.4-.03,6.829,0,10.229,0A4.084,4.084,0,0,1,11.675,50.028Z" transform="translate(0 -35.128)"/>
      <path id="Path_225" data-name="Path 225" class="cls-4" d="M4.03,1.57V6.133c0,1.133.03,2.267,0,3.37,0,.328.089.447.418.447,1.193,0,1.193,0,1.193-1.193V1A.759.759,0,0,1,6.565.258a.35.35,0,0,1,.179.3c.03.388.03.775.03,1.163V9.473c0,.388.119.537.507.477A2.874,2.874,0,0,1,8,9.95c.358.03.477-.089.477-.418V.437c0-.179.06-.447.149-.477a2.257,2.257,0,0,1,.775,0c.06,0,.089.239.089.388V9.413c0,.388.119.507.507.507,1.551-.03,1.133,0,1.253-2.505.089-2.3.06-4.623-.03-6.919-.03-.477.089-.6.537-.6,7.4.03,14.822,0,22.218.06a6.576,6.576,0,0,1,2.207.6,7.437,7.437,0,0,1,3.7,3.191,7.029,7.029,0,0,1,1.1,4.324,22.394,22.394,0,0,0-.089,3.161c.089,1.581.328,1.909-.268,1.909-4.056,0-8.082,0-12.138-.03a.872.872,0,0,1-.567-.239,10.149,10.149,0,0,0-8.887-2.654,10.385,10.385,0,0,0-5.279,2.595,1,1,0,0,1-.805.388H.988c-.209,0-.388.03-.388-.3.06-1.938.03-3.877.149-5.845A7.177,7.177,0,0,1,2.986,2.316c.3-.3.6-.567.895-.835A.4.4,0,0,1,4.03,1.57ZM37.371,6.729h0V4.552A1.05,1.05,0,0,0,36.3,3.419c-1.61-.03-3.221,0-4.831.03a.784.784,0,0,0-.775.746c-.06,1.61-.119,3.191-.089,4.8a1.036,1.036,0,0,0,1.1,1.163c1.431.06,2.893.089,4.324.03.925-.03,1.282-.328,1.342-1.491C37.4,8.071,37.371,7.386,37.371,6.729Z" transform="translate(-0.436 0)"/>
      <path id="Path_226" data-name="Path 226" class="cls-4" d="M48.462,42.759a7.961,7.961,0,1,0,8.559,7.963A7.915,7.915,0,0,0,48.462,42.759Zm.626,13.778a5.874,5.874,0,0,1-5.875-5.815,5.961,5.961,0,0,1,5.607-5.875,5.882,5.882,0,0,1,6.143,5.845A5.8,5.8,0,0,1,49.088,56.538Z" transform="translate(-28.884 -30.065)"/>
    </g>
  </g>
</svg>
