<svg xmlns="http://www.w3.org/2000/svg" xmlns:xlink="http://www.w3.org/1999/xlink" viewBox="1890 0 1280 139">
  <defs>
    <style>
      .cls-1 {
        clip-path: url(#clip-Sticky_Menu);
      }

      .cls-2 {
        fill: #ddd;
      }

      .cls-3 {
        fill: #72c0c6;
      }

      .cls-4 {
        fill: #283995;
      }

      .cls-5, .cls-6 {
        fill: #293c94;
      }

      .cls-5 {
        font-size: 20px;
        font-family: HelveticaNeue-CondensedBold, Helvetica Neue;
        font-weight: 700;
      }

      .cls-7 {
        fill: none;
        stroke: #293c94;
        stroke-width: 3px;
      }

      .cls-8 {
        fill: #fff;
      }
    </style>
    <clipPath id="clip-Sticky_Menu">
      <rect x="1890" width="1280" height="139"/>
    </clipPath>
  </defs>
  <g id="Sticky_Menu" data-name="Sticky Menu" class="cls-1">
    <rect class="cls-8" x="1890" width="1280" height="139"/>
    <rect id="Rectangle_20" data-name="Rectangle 20" class="cls-2" width="1281" height="146" transform="translate(1890 -3)"/>
    <g id="Group_71" data-name="Group 71" transform="translate(2419 16.24)">
      <path id="Path_32" data-name="Path 32" class="cls-3" d="M38.152,54.87,31.2,32.4,24.24,54.828h-11.3L0,19.5H11.551l7.293,24.493L25.927,19.5H36.761l7.293,24.493L51.221,19.5H62.308L49.366,54.87Z" transform="translate(0 -11.279)"/>
      <path id="Path_33" data-name="Path 33" class="cls-3" d="M182.363,31.073v23.1H171.276V50.086c-2.319,3.035-6.028,4.6-10.834,4.6-7.546,0-12.141-4.6-12.141-11.087,0-6.7,4.806-10.624,13.575-10.708h9.317V32.38c0-3.5-2.319-5.565-6.914-5.565A25.067,25.067,0,0,0,153.7,29.766l-3.2-7.462a37.182,37.182,0,0,1,16.4-4C176.672,18.257,182.321,23.063,182.363,31.073Z" transform="translate(-85.781 -10.585)"/>
      <path id="Path_34" data-name="Path 34" class="cls-3" d="M266.637,41.693a19.168,19.168,0,0,1-9.443,2.445c-6.829,0-11.762-3.878-11.762-11.214V17.284H240.5V9.865h4.932V0h11.3V9.78h9.275v7.5H256.73v13.87c0,2.74,1.18,3.921,3.288,3.878a12.216,12.216,0,0,0,4.384-1.18Z" transform="translate(-139.112)"/>
      <path id="Path_35" data-name="Path 35" class="cls-3" d="M344.955,39.72H320.082A8.163,8.163,0,0,0,328.43,46.3a12,12,0,0,0,8.474-3.626l5.986,5.86c-3.625,3.921-8.937,6.239-15.43,6.239-11.551,0-18.76-7.209-18.76-18,0-10.961,7.5-18.17,18.465-18.17C339.6,18.558,345.756,26.778,344.955,39.72Z" transform="translate(-178.561 -10.759)"/>
      <path id="Path_36" data-name="Path 36" class="cls-3" d="M420.74,24.692A12.917,12.917,0,0,1,432.249,18.2V28.444c-6.577-.59-10.919,2.487-11.509,7.462v18.17H409.4V18.748h11.34Z" transform="translate(-236.809 -10.527)"/>
      <path id="Path_37" data-name="Path 37" class="cls-3" d="M449.8,23.782l2.782,4.722s7.293-.97,7.209,6.366h9.527s1.939-18.76-16.02-16.441Z" transform="translate(-260.177 -10.544)"/>
      <ellipse id="Ellipse_3" data-name="Ellipse 3" class="cls-3" cx="5.227" cy="2.614" rx="5.227" ry="2.614" transform="translate(173.35 1.18)"/>
      <path id="Path_38" data-name="Path 38" class="cls-3" d="M391.463,4.363S378.9.7,378.9,4.363s5.354,2.319,12.563,1.644C391.463,6.008,390.788,4.911,391.463,4.363Z" transform="translate(-219.167 -1.581)"/>
      <path id="Path_39" data-name="Path 39" class="cls-3" d="M438.8,4.363s12.563-3.668,12.563,0S446.009,6.682,438.8,6.008C438.8,6.008,439.432,4.911,438.8,4.363Z" transform="translate(-253.814 -1.581)"/>
      <path id="Path_40" data-name="Path 40" class="cls-4" d="M182.275,63.3s1.56,10.076-7.125,10.624c-5.312.337-8.558-5.523-3.963-7.588C175.319,64.48,178.608,70.593,182.275,63.3Z" transform="translate(-97.75 -36.615)"/>
      <path id="Path_41" data-name="Path 41" class="cls-4" d="M338.4,44.943s.3-10.2,8.937-9.148c5.312.632,7.377,7,2.487,8.178C345.482,45.028,343.332,38.451,338.4,44.943Z" transform="translate(-195.74 -20.661)"/>
      <g id="Group_22" data-name="Group 22" transform="translate(195.862 25.927)">
        <path id="Path_42" data-name="Path 42" class="cls-4" d="M469.575,61.584l-3.71,9.907-1.265-.548,4.806-9.443Z" transform="translate(-464.6 -61.5)"/>
      </g>
      <g id="Group_23" data-name="Group 23" transform="translate(197.843 25.927)">
        <path id="Path_43" data-name="Path 43" class="cls-4" d="M474.106,61.542l-2.487,16.1L469.3,77.14l4.6-15.64Z" transform="translate(-469.3 -61.5)"/>
      </g>
      <g id="Group_24" data-name="Group 24" transform="translate(203.06 25.969)">
        <path id="Path_44" data-name="Path 44" class="cls-4" d="M483.034,61.6a21.367,21.367,0,0,1,.632,2.614c.126.885.253,1.728.3,2.614A18.055,18.055,0,0,1,484,69.441a8.367,8.367,0,0,1-.59,2.614h-1.18a7.449,7.449,0,0,1-.548-2.614,18.059,18.059,0,0,1,.126-2.614c.084-.885.211-1.728.379-2.614a19.819,19.819,0,0,1,.675-2.614Z" transform="translate(-481.673 -61.6)"/>
      </g>
      <g id="Group_25" data-name="Group 25" transform="translate(206.064 25.927)">
        <path id="Path_45" data-name="Path 45" class="cls-4" d="M489.011,61.5l3.71,15.387-2.108.379L488.8,61.542Z" transform="translate(-488.8 -61.5)"/>
      </g>
      <g id="Group_26" data-name="Group 26" transform="translate(188.358 36.171)">
        <path id="Path_46" data-name="Path 46" class="cls-4" d="M455.189,86.306l-5.312,14.924L446.8,99.88,454.009,85.8Z" transform="translate(-446.8 -85.8)"/>
      </g>
      <g id="Group_27" data-name="Group 27" transform="translate(202.776 37.604)">
        <path id="Path_47" data-name="Path 47" class="cls-4" d="M482.939,89.2a24.091,24.091,0,0,1,.506,2.867c.126.97.211,1.939.253,2.867.042.97.084,1.939.084,2.867a5.551,5.551,0,0,1-.169,1.433,3.812,3.812,0,0,1-.717,1.433h-1.012a3.281,3.281,0,0,1-.717-1.433A5.551,5.551,0,0,1,481,97.8c0-.97.042-1.939.084-2.867.042-.97.127-1.939.253-2.867a21.425,21.425,0,0,1,.506-2.867Z" transform="translate(-481 -89.2)"/>
      </g>
      <g id="Group_28" data-name="Group 28" transform="translate(197 42.579)">
        <path id="Path_48" data-name="Path 48" class="cls-4" d="M469.113,101a4.917,4.917,0,0,1,.253,1.728,10.808,10.808,0,0,1-.126,1.644,6.564,6.564,0,0,1-.422,1.56,5.609,5.609,0,0,1-.8,1.475l-.59-.126a7.771,7.771,0,0,1-.126-1.686,10.538,10.538,0,0,1,.253-1.6,6.538,6.538,0,0,1,.548-1.518A7.044,7.044,0,0,1,469.113,101Z" transform="translate(-467.3 -101)"/>
      </g>
      <g id="Group_29" data-name="Group 29" transform="translate(208.745 42.958)">
        <path id="Path_49" data-name="Path 49" class="cls-4" d="M495.725,101.9a3.912,3.912,0,0,1,.8,1.307,8.764,8.764,0,0,1,.422,1.391,5.361,5.361,0,0,1,.084,1.433,4.127,4.127,0,0,1-.337,1.518l-.211.042a3.917,3.917,0,0,1-.8-1.307,8.752,8.752,0,0,1-.422-1.391,5.361,5.361,0,0,1-.084-1.433,4.132,4.132,0,0,1,.337-1.518Z" transform="translate(-495.161 -101.9)"/>
      </g>
      <path id="Path_50" data-name="Path 50" class="cls-4" d="M184.128,137.981c.927.126,1.391-.253,1.349-1.18v-.379c-.042-1.054-.422-1.349-1.475-1.223a1.823,1.823,0,0,1-1.686-.548,1.635,1.635,0,0,1,.885-2.656,5.438,5.438,0,0,0,.885-.211c.632-.3.675-.927.211-2.024a.967.967,0,0,0-1.307-.59,2.259,2.259,0,0,0-.464.211,1.656,1.656,0,0,1-2.276-.8,1.636,1.636,0,0,1,.927-2.192c.97-.464,1.1-.97.506-1.855a1.872,1.872,0,0,0-.337-.464,1.022,1.022,0,0,0-1.476-.169,2.724,2.724,0,0,0-.379.337,1.659,1.659,0,0,1-2.15.042,1.319,1.319,0,0,0-.422-.211.939.939,0,0,1-.337-1.686c.337-.337.717-.632,1.1-.97a.981.981,0,0,0,.042-1.349c-1.054-1.18-1.644-1.18-2.572.084a.041.041,0,0,1-.042.042,1.542,1.542,0,0,1-1.686.59,1.526,1.526,0,0,1-1.223-1.223,1.886,1.886,0,0,1,.422-1.6.978.978,0,0,0-.3-1.433c-.97-.632-1.728-.632-2.108-.042a1.76,1.76,0,0,0-.169.422c-.084.169-.084.379-.169.548a1.581,1.581,0,0,1-1.518,1.012,1.507,1.507,0,0,1-1.476-1.054,3.636,3.636,0,0,1,.042-1.349c.127-.759-.126-1.265-.885-1.391-1.518-.253-1.771-.084-1.9,1.475a1.677,1.677,0,0,1-1.138,1.518,1.564,1.564,0,0,1-1.771-.506,2.942,2.942,0,0,1-.379-1.349c-.084-.675-.379-1.138-.97-1.1-1.223.042-1.771.211-1.9,1.012a2.143,2.143,0,0,0,.169.843,1.644,1.644,0,1,1-3.162.885c-.337-1.1-.8-1.265-1.855-.8-.126.042-.253.126-.379.169a1.006,1.006,0,0,0-.422,1.518,3.692,3.692,0,0,0,.253.422,1.644,1.644,0,0,1-2.74,1.813,2.556,2.556,0,0,0-.3-.422c-.422-.59-1.012-.59-1.644-.084-.927.8-1.054,1.349-.506,1.9.126.126.253.211.379.337A1.642,1.642,0,0,1,148,124.66a1.674,1.674,0,0,1-2.4.126,2.537,2.537,0,0,0-.548-.379,1.032,1.032,0,0,0-1.307.506c-.59.885-.674,1.391-.253,1.813a2.685,2.685,0,0,0,.759.422,1.609,1.609,0,0,1,.843,2.192,1.655,1.655,0,0,1-2.234.8c-.127-.042-.3-.126-.422-.169a1.009,1.009,0,0,0-1.307.675c-.422,1.138-.3,1.771.379,2.023a3.359,3.359,0,0,0,.632.127,1.667,1.667,0,0,1,1.518,1.813A1.608,1.608,0,0,1,141.676,136a1.336,1.336,0,0,0-1.475.632v1.349c.422.843.59.927,1.644.759a1.661,1.661,0,0,1,1.939,1.433,1.638,1.638,0,0,1-1.433,1.813c-.169.042-.337.042-.506.084a.993.993,0,0,0-.674,1.265c.211,1.1.674,1.6,1.307,1.518a.794.794,0,0,0,.337-.084,2.262,2.262,0,0,0,.464-.211,1.656,1.656,0,0,1,2.192.8,1.63,1.63,0,0,1-.843,2.192,1.654,1.654,0,0,0-.59.337c-.548.422-.464,1.054.253,1.981a1,1,0,0,0,1.433.3c.169-.127.3-.253.464-.379a1.66,1.66,0,0,1,2.15-.042,1.482,1.482,0,0,0,.337.211.927.927,0,0,1,.337,1.686c-.337.3-.717.59-1.054.927a.933.933,0,0,0,.084,1.475c.843.843,1.475.97,1.981.464.084-.084.127-.211.211-.3a4.417,4.417,0,0,1,.337-.464,1.485,1.485,0,0,1,1.6-.548,1.527,1.527,0,0,1,1.223,1.223,1.94,1.94,0,0,1-.422,1.56.985.985,0,0,0,.464,1.56c.126.042.211.084.337.126,1.054.464,1.518.253,1.855-.843a2.565,2.565,0,0,1,.379-.759,1.518,1.518,0,0,1,1.56-.548,1.48,1.48,0,0,1,1.223,1.18,2.613,2.613,0,0,1-.084,1.138,1.067,1.067,0,0,0,.97,1.433c1.518.211,1.728.042,1.813-1.518a1.6,1.6,0,0,1,1.476-1.56,1.623,1.623,0,0,1,1.771,1.307,3.627,3.627,0,0,1,.042.674,1.024,1.024,0,0,0,1.265,1.054c1.6-.253,1.728-.422,1.391-2.023a1.66,1.66,0,0,1,1.054-1.9,1.607,1.607,0,0,1,2.024.843c.084.211.169.464.253.675a.905.905,0,0,0,.97.674c1.475-.042,2.024-1.1,1.307-2.319,0-.042-.042-.042-.042-.084a1.709,1.709,0,0,1,.506-2.234,1.632,1.632,0,0,1,2.234.464,2.558,2.558,0,0,0,.3.422.966.966,0,0,0,1.56.084c.97-.843,1.138-1.349.59-1.939a5.988,5.988,0,0,1-.548-.506,1.644,1.644,0,0,1,.084-2.4,1.694,1.694,0,0,1,2.276.126c.759.632,1.307.548,1.855-.3l.253-.379a.991.991,0,0,0-.506-1.6c-.548-.253-1.138-.548-1.223-1.223a3.43,3.43,0,0,1,.084-1.307,1.137,1.137,0,0,1,1.644-.885c.337.126.675.3.97.422a.927.927,0,0,0,1.138-.337,1.42,1.42,0,0,0-.927-2.487c-.126-.042-.253-.042-.337-.084a1.648,1.648,0,0,1-.97-2.234,2.507,2.507,0,0,1,2.15-.717m-11.762-12.31a9.242,9.242,0,0,1,1.855-.211h.211v.211a9.24,9.24,0,0,1-.211,1.855,4.715,4.715,0,0,1-1.307,2.529,3.875,3.875,0,0,1-1.855.843h-.337a1.747,1.747,0,0,1-1.307-.506h0a1.938,1.938,0,0,1-.464-1.644,3.6,3.6,0,0,1,.885-1.855,5.093,5.093,0,0,1,2.529-1.223m-15.851-4.342a1.608,1.608,0,0,1,2.192.253s.464.548.885,1.138c.211.3.422.59.548.8.126-.3.337-.759.59-1.223a11.083,11.083,0,0,1,.632-1.1l.337-.464a1.635,1.635,0,0,1,1.138-.632h.084a1.61,1.61,0,0,1,1.138.632l.337.464a8.422,8.422,0,0,1,.632,1.1,10.334,10.334,0,0,1,.59,1.223c.169-.211.337-.506.548-.8.422-.59.885-1.1.885-1.138a1.608,1.608,0,0,1,2.192-.253,1.811,1.811,0,0,1,.759,1.433,1.928,1.928,0,0,1-.717,1.518s-.253.211-.59.548c-.3.3-.759.759-1.222,1.265a15.622,15.622,0,0,0-1.518,2.024,1.284,1.284,0,0,1-1.18.717h-.084a1.036,1.036,0,0,1-.675-.8l-.169-.506a10.609,10.609,0,0,0-.422-1.1c-.211-.464-.464-.927-.632-1.265-.169.3-.422.8-.632,1.265a8.075,8.075,0,0,0-.422,1.138l-.169.506a.9.9,0,0,1-.675.759.155.155,0,0,0-.126.042h-.084a1.385,1.385,0,0,1-1.054-.717,19.706,19.706,0,0,0-1.518-2.023c-.464-.506-.885-.97-1.223-1.265-.337-.337-.59-.548-.59-.548a2.07,2.07,0,0,1-.717-1.518,2.88,2.88,0,0,1,.927-1.476m11.635,15.682a5.227,5.227,0,1,1-5.228-5.227,5.227,5.227,0,0,1,5.228,5.227m-16.736-11.34v-.211h.211a9.241,9.241,0,0,1,1.855.211,4.715,4.715,0,0,1,2.529,1.307,3.874,3.874,0,0,1,.843,1.855,1.9,1.9,0,0,1-.464,1.644,1.747,1.747,0,0,1-1.307.506h-.337a3.875,3.875,0,0,1-1.855-.843,4.447,4.447,0,0,1-1.307-2.529,8.616,8.616,0,0,1-.169-1.939m-.674,17.2c-.337.337-.548.59-.548.59a1.985,1.985,0,0,1-1.476.717h-.084a1.949,1.949,0,0,1-1.433-.759,1.608,1.608,0,0,1,.253-2.192s.548-.464,1.138-.885c.3-.211.59-.422.8-.548-.3-.126-.759-.337-1.223-.59a11.073,11.073,0,0,1-1.1-.632l-.464-.337a1.635,1.635,0,0,1-.632-1.138v-.084a1.61,1.61,0,0,1,.632-1.138l.464-.337a11.08,11.08,0,0,1,1.1-.632,10.349,10.349,0,0,1,1.223-.59c-.211-.169-.506-.337-.8-.548-.59-.422-1.138-.885-1.138-.885a1.608,1.608,0,0,1-.253-2.192,1.811,1.811,0,0,1,1.433-.759,1.928,1.928,0,0,1,1.518.717s.211.253.548.59c.3.3.759.759,1.265,1.223a15.62,15.62,0,0,0,2.024,1.518,1.284,1.284,0,0,1,.717,1.18v.084a1.036,1.036,0,0,1-.8.675l-.506.169a10.6,10.6,0,0,0-1.1.422c-.464.211-.927.464-1.265.632.3.169.8.422,1.265.632a8.067,8.067,0,0,0,1.138.422l.506.169a.9.9,0,0,1,.759.675.155.155,0,0,0,.042.126,1.31,1.31,0,0,1-.717,1.138h0A19.7,19.7,0,0,0,152,141.818a6.687,6.687,0,0,0-1.265,1.054m2.74,5.48a12.278,12.278,0,0,1-1.855.211h-.253v-.211a9.24,9.24,0,0,1,.211-1.855,4.715,4.715,0,0,1,1.307-2.529,3.875,3.875,0,0,1,1.855-.843,1.9,1.9,0,0,1,1.644.464h0a1.938,1.938,0,0,1,.464,1.644,3.6,3.6,0,0,1-.885,1.855,4.989,4.989,0,0,1-2.487,1.265m15.893,4.342a1.608,1.608,0,0,1-2.192-.253s-.464-.548-.885-1.138c-.211-.3-.422-.59-.548-.8-.127.3-.337.759-.59,1.223a11.07,11.07,0,0,1-.632,1.1l-.337.464a1.635,1.635,0,0,1-1.138.632h-.084a1.61,1.61,0,0,1-1.138-.632l-.337-.464a8.417,8.417,0,0,1-.632-1.1,10.355,10.355,0,0,1-.59-1.223c-.169.211-.337.506-.548.8-.422.548-.885,1.138-.885,1.138a1.608,1.608,0,0,1-2.192.253,1.844,1.844,0,0,1-.042-2.951s.253-.211.59-.548c.3-.3.759-.759,1.223-1.265a15.624,15.624,0,0,0,1.518-2.024,1.284,1.284,0,0,1,1.18-.717h.084a1.036,1.036,0,0,1,.674.8l.169.506a10.585,10.585,0,0,0,.422,1.1c.211.464.464.927.632,1.265.169-.3.422-.8.632-1.265a8.064,8.064,0,0,0,.422-1.138l.169-.506a.9.9,0,0,1,.675-.759.155.155,0,0,0,.126-.042,1.31,1.31,0,0,1,1.138.717,19.687,19.687,0,0,0,1.518,2.024c.464.548.927.97,1.223,1.265.337.337.59.548.59.548a2.07,2.07,0,0,1,.717,1.518,3.286,3.286,0,0,1-.927,1.475m5.1-4.384v.211h-.253a8.278,8.278,0,0,1-1.855-.211A4.715,4.715,0,0,1,169.836,147a3.876,3.876,0,0,1-.843-1.855,1.9,1.9,0,0,1,.464-1.644,1.981,1.981,0,0,1,1.644-.464,3.6,3.6,0,0,1,1.855.885,4.447,4.447,0,0,1,1.307,2.529,9.238,9.238,0,0,1,.211,1.855m5.4-11.3a1.611,1.611,0,0,1-.632,1.138l-.464.337a8.429,8.429,0,0,1-1.1.632,10.353,10.353,0,0,1-1.223.59c.211.126.506.337.8.548.59.422,1.138.885,1.138.885a1.608,1.608,0,0,1,.253,2.192,1.812,1.812,0,0,1-1.433.759h-.084a1.837,1.837,0,0,1-1.433-.717s-.211-.253-.548-.59c-.3-.3-.759-.759-1.265-1.223a15.624,15.624,0,0,0-2.024-1.518,1.284,1.284,0,0,1-.717-1.18v-.084a1.036,1.036,0,0,1,.8-.675l.506-.169a10.6,10.6,0,0,0,1.1-.422c.464-.211.927-.464,1.265-.632-.3-.169-.8-.422-1.265-.632a8.071,8.071,0,0,0-1.138-.422l-.506-.169a.9.9,0,0,1-.759-.674.155.155,0,0,0-.042-.127,1.31,1.31,0,0,1,.717-1.138,19.7,19.7,0,0,0,2.024-1.518c.548-.464.97-.927,1.265-1.223.337-.337.548-.59.548-.59a2.07,2.07,0,0,1,1.518-.717,1.949,1.949,0,0,1,1.433.759,1.608,1.608,0,0,1-.253,2.192s-.548.464-1.138.885c-.3.211-.59.422-.8.548.3.126.759.337,1.223.59a11.08,11.08,0,0,1,1.1.632l.464.337a1.635,1.635,0,0,1,.632,1.138v.253Z" transform="translate(-81.096 -66.272)"/>
      <g id="Group_30" data-name="Group 30" transform="translate(207.455 25.589)">
        <path id="Path_51" data-name="Path 51" class="cls-4" d="M492.269,60.7l4.806,9.443-1.265.59-3.71-9.949Z" transform="translate(-492.1 -60.7)"/>
      </g>
      <g id="Group_31" data-name="Group 31" transform="translate(211.544 35.876)">
        <path id="Path_52" data-name="Path 52" class="cls-4" d="M503.023,85.1l6.745,14-3.12,1.223L501.8,85.564Z" transform="translate(-501.8 -85.1)"/>
      </g>
      <g id="Group_32" data-name="Group 32" transform="translate(0.295 50.504)">
        <path id="Path_53" data-name="Path 53" class="cls-4" d="M39.78,161.313l-7.546-28.034L24.6,161.313H13.937L.7,120.8h11l7.926,29.805L27.385,120.8H37.461l7.926,29.805,7.8-29.805H63.725L50.361,161.313Z" transform="translate(-0.7 -120.378)"/>
        <path id="Path_54" data-name="Path 54" class="cls-4" d="M270.781,149.846h-8.094v11.382H252.4V120.8h18.085c10.666,0,16.821,5.1,16.821,14.08,0,6.2-2.614,10.624-7.335,12.984l8.474,13.322H276.767Zm-.3-8.094c4.469,0,7.04-2.234,7.04-6.534,0-4.216-2.614-6.366-7.04-6.366h-7.8v12.9Z" transform="translate(-146.291 -120.378)"/>
        <path id="Path_55" data-name="Path 55" class="cls-4" d="M361,145.293l-5.354,5.944v9.907H345.4V120.8h10.244v17.453l15.43-17.453h11.888L368,137.494,383.974,161.1H371.706Z" transform="translate(-200.085 -120.378)"/>
        <path id="Path_56" data-name="Path 56" class="cls-4" d="M469.542,124.269l-3.879,8.01c-4.258-2.487-9.612-4.216-12.9-4.216-2.656,0-4.427.97-4.427,2.951,0,6.956,21.332,2.993,21.332,17.579,0,8.052-7.125,12.31-16.146,12.31a29.964,29.964,0,0,1-18.423-6.45l3.963-7.883c4.131,3.625,10.371,6.028,14.586,6.028,3.2,0,5.228-1.223,5.228-3.5,0-7.125-21.331-2.867-21.331-17.158,0-7.42,6.408-12.141,16.062-12.141A30.429,30.429,0,0,1,469.542,124.269Z" transform="translate(-251.97 -119.8)"/>
      </g>
      <g id="Group_33" data-name="Group 33" transform="translate(6.452 97.594)">
        <path id="Path_57" data-name="Path 57" class="cls-3" d="M17.789,238.392v-2.4l-2.4-3.583c-.169-.3-.084-.506.3-.506h.59a.55.55,0,0,1,.506.3l1.686,2.7,1.686-2.7a.55.55,0,0,1,.506-.3h.59c.337,0,.464.211.253.506l-2.4,3.583v2.4a.4.4,0,0,1-.422.422h-.464C17.916,238.772,17.789,238.645,17.789,238.392Z" transform="translate(-15.304 -231.731)"/>
        <path id="Path_58" data-name="Path 58" class="cls-3" d="M35.4,235.083a3.626,3.626,0,1,1,3.626,3.583A3.538,3.538,0,0,1,35.4,235.083Zm5.944,0a2.32,2.32,0,1,0-2.319,2.4A2.282,2.282,0,0,0,41.344,235.083Z" transform="translate(-26.928 -231.5)"/>
        <path id="Path_59" data-name="Path 59" class="cls-3" d="M60,236.142v-3.921a.4.4,0,0,1,.422-.422h.464a.4.4,0,0,1,.422.422v3.921a1.518,1.518,0,1,0,3.035,0v-3.921a.4.4,0,0,1,.422-.422h.464a.4.4,0,0,1,.422.422v3.921a2.827,2.827,0,0,1-5.649,0Z" transform="translate(-41.157 -231.674)"/>
        <path id="Path_60" data-name="Path 60" class="cls-3" d="M84.345,236.127H83.207v2.108a.4.4,0,0,1-.422.422h-.464a.4.4,0,0,1-.422-.422v-6.113a.4.4,0,0,1,.422-.422h2.614a2.089,2.089,0,0,1,2.192,2.234A2.013,2.013,0,0,1,85.568,236c.084.717.506,1.644,1.18,1.644a1.3,1.3,0,0,0,.464-.084c.253-.084.379-.042.506.169l.084.126c.127.253.084.422-.126.548a2.043,2.043,0,0,1-1.1.3C84.893,238.782,84.429,236.927,84.345,236.127Zm.379-.97a1.139,1.139,0,0,0,0-2.276H83.207V235.2h1.518Z" transform="translate(-53.825 -231.616)"/>
        <path id="Path_61" data-name="Path 61" class="cls-3" d="M113.5,238.334v-6.113a.4.4,0,0,1,.422-.422h.253a.6.6,0,0,1,.506.253l3.162,4.3v-4.131a.4.4,0,0,1,.422-.422h.464a.4.4,0,0,1,.422.422v6.113a.4.4,0,0,1-.422.422h-.253a.6.6,0,0,1-.506-.253l-3.162-4.342v4.174a.4.4,0,0,1-.422.422h-.464C113.626,238.714,113.5,238.587,113.5,238.334Z" transform="translate(-72.103 -231.674)"/>
        <path id="Path_62" data-name="Path 62" class="cls-3" d="M137.007,232.838v1.9h2.4a.4.4,0,0,1,.422.422v.211a.4.4,0,0,1-.422.422h-2.4v1.771h2.825a.4.4,0,0,1,.422.422v.253a.4.4,0,0,1-.422.422h-3.71a.4.4,0,0,1-.422-.422v-6.113a.4.4,0,0,1,.422-.422h3.71a.4.4,0,0,1,.422.422v.253a.4.4,0,0,1-.422.422h-2.825Z" transform="translate(-84.944 -231.616)"/>
        <path id="Path_63" data-name="Path 63" class="cls-3" d="M154.4,238.334v-6.113a.4.4,0,0,1,.422-.422h.464a.4.4,0,0,1,.422.422v6.113a.4.4,0,0,1-.422.422h-.464C154.527,238.714,154.4,238.587,154.4,238.334Z" transform="translate(-95.761 -231.674)"/>
        <path id="Path_64" data-name="Path 64" class="cls-3" d="M165.2,235.083a3.6,3.6,0,0,1,3.668-3.583,3.983,3.983,0,0,1,2.15.548.415.415,0,0,1,.127.59l-.169.253a.407.407,0,0,1-.59.127,2.953,2.953,0,0,0-1.518-.379,2.4,2.4,0,0,0-2.361,2.445,2.333,2.333,0,0,0,2.445,2.4,2.654,2.654,0,0,0,1.391-.379v-1.18h-1.391a.4.4,0,0,1-.422-.422v-.169a.4.4,0,0,1,.422-.422h2.192a.4.4,0,0,1,.422.422v1.981a.664.664,0,0,1-.3.548,3.743,3.743,0,0,1-2.361.759A3.5,3.5,0,0,1,165.2,235.083Z" transform="translate(-102.008 -231.5)"/>
        <path id="Path_65" data-name="Path 65" class="cls-3" d="M188.2,238.334v-6.113a.4.4,0,0,1,.422-.422h.464a.4.4,0,0,1,.422.422v2.656h2.867v-2.656a.4.4,0,0,1,.422-.422h.464a.4.4,0,0,1,.422.422v6.113a.4.4,0,0,1-.422.422H192.8a.4.4,0,0,1-.422-.422v-2.361h-2.867v2.361a.4.4,0,0,1-.422.422h-.464C188.327,238.714,188.2,238.587,188.2,238.334Z" transform="translate(-115.312 -231.674)"/>
        <path id="Path_66" data-name="Path 66" class="cls-3" d="M215.254,236.759c0,1.138-.97,1.9-2.4,1.9h-2.529a.4.4,0,0,1-.422-.422v-6.113a.4.4,0,0,1,.422-.422h2.192c1.391,0,2.361.675,2.361,1.855a1.528,1.528,0,0,1-1.223,1.518A1.714,1.714,0,0,1,215.254,236.759Zm-4-3.963v1.939h.97c1.012,0,1.433-.506,1.433-1.012,0-.59-.506-.927-1.138-.927Zm2.7,3.878c0-.548-.464-1.054-1.518-1.054h-1.18V237.6h1.6C213.525,237.6,213.947,237.223,213.947,236.675Z" transform="translate(-127.864 -231.616)"/>
        <path id="Path_67" data-name="Path 67" class="cls-3" d="M229.1,235.083a3.626,3.626,0,1,1,3.626,3.583A3.59,3.59,0,0,1,229.1,235.083Zm5.944,0a2.32,2.32,0,1,0-2.319,2.4A2.259,2.259,0,0,0,235.044,235.083Z" transform="translate(-138.97 -231.5)"/>
        <path id="Path_68" data-name="Path 68" class="cls-3" d="M256.445,236.127h-1.138v2.108a.4.4,0,0,1-.422.422h-.464a.4.4,0,0,1-.422-.422v-6.113a.4.4,0,0,1,.422-.422h2.614a2.089,2.089,0,0,1,2.192,2.234,2.013,2.013,0,0,1-1.56,2.066c.084.717.506,1.644,1.18,1.644a1.3,1.3,0,0,0,.464-.084c.253-.084.379-.042.506.169l.084.126c.126.253.084.422-.126.548a2.043,2.043,0,0,1-1.1.3C256.993,238.782,256.529,236.927,256.445,236.127Zm.379-.97a1.139,1.139,0,0,0,0-2.276h-1.518V235.2h1.518Z" transform="translate(-153.372 -231.616)"/>
        <path id="Path_69" data-name="Path 69" class="cls-3" d="M275,238.334v-6.113a.4.4,0,0,1,.422-.422h.464a.4.4,0,0,1,.422.422v2.656h2.867v-2.656a.4.4,0,0,1,.422-.422h.464a.4.4,0,0,1,.422.422v6.113a.4.4,0,0,1-.422.422H279.6a.4.4,0,0,1-.422-.422v-2.361h-2.867v2.361a.4.4,0,0,1-.422.422h-.464C275.169,238.714,275,238.587,275,238.334Z" transform="translate(-165.52 -231.674)"/>
        <path id="Path_70" data-name="Path 70" class="cls-3" d="M295.7,235.083a3.626,3.626,0,1,1,3.625,3.583A3.589,3.589,0,0,1,295.7,235.083Zm5.944,0a2.32,2.32,0,1,0-2.319,2.4A2.259,2.259,0,0,0,301.644,235.083Z" transform="translate(-177.493 -231.5)"/>
        <path id="Path_71" data-name="Path 71" class="cls-3" d="M319.5,235.083a3.626,3.626,0,1,1,3.626,3.583A3.589,3.589,0,0,1,319.5,235.083Zm5.944,0a2.32,2.32,0,1,0-2.319,2.4A2.259,2.259,0,0,0,325.444,235.083Z" transform="translate(-191.26 -231.5)"/>
        <path id="Path_72" data-name="Path 72" class="cls-3" d="M344.4,238.334v-6.113a.4.4,0,0,1,.422-.422h2.108a3.458,3.458,0,1,1,0,6.914h-2.108C344.569,238.714,344.4,238.587,344.4,238.334Zm2.445-.717a2.361,2.361,0,0,0,0-4.722h-1.138v4.722Z" transform="translate(-205.663 -231.674)"/>
        <path id="Path_73" data-name="Path 73" class="cls-3" d="M376,235.083a3.545,3.545,0,0,1,3.752-3.583,3.745,3.745,0,0,1,2.066.59.378.378,0,0,1,.084.59l-.169.211a.415.415,0,0,1-.59.127,2.8,2.8,0,0,0-1.433-.379,2.4,2.4,0,1,0,0,4.806,2.8,2.8,0,0,0,1.433-.379c.253-.126.422-.126.59.127l.169.211a.357.357,0,0,1-.042.548,3.575,3.575,0,0,1-2.108.632A3.436,3.436,0,0,1,376,235.083Z" transform="translate(-223.941 -231.5)"/>
        <path id="Path_74" data-name="Path 74" class="cls-3" d="M396.333,238.25l2.361-6.113a.493.493,0,0,1,.464-.337h.632a.457.457,0,0,1,.464.337l2.361,6.113c.126.3,0,.464-.337.464h-.464a.508.508,0,0,1-.506-.337l-.379-1.012h-2.993l-.379,1.012a.493.493,0,0,1-.464.337h-.464C396.333,238.714,396.207,238.545,396.333,238.25Zm4.342-1.9-1.18-3.2-1.18,3.2Z" transform="translate(-235.674 -231.674)"/>
        <path id="Path_75" data-name="Path 75" class="cls-3" d="M421.145,236.127h-1.138v2.108a.4.4,0,0,1-.422.422h-.464a.4.4,0,0,1-.422-.422v-6.113a.4.4,0,0,1,.422-.422h2.614a2.089,2.089,0,0,1,2.192,2.234,2.013,2.013,0,0,1-1.56,2.066c.084.717.506,1.644,1.18,1.644a1.3,1.3,0,0,0,.464-.084c.253-.084.379-.042.506.169l.084.126c.127.253.084.422-.126.548a2.043,2.043,0,0,1-1.1.3C421.693,238.782,421.229,236.927,421.145,236.127Zm.379-.97a1.139,1.139,0,0,0,0-2.276h-1.518V235.2h1.518Z" transform="translate(-248.64 -231.616)"/>
        <path id="Path_76" data-name="Path 76" class="cls-3" d="M439.862,238.377l-1.9-6.113c-.084-.3.042-.464.337-.464h.464a.457.457,0,0,1,.464.337l1.349,4.384,1.265-4.174a.457.457,0,0,1,.464-.337h.3a.457.457,0,0,1,.464.337l1.265,4.174,1.349-4.384a.457.457,0,0,1,.464-.337h.464c.3,0,.422.169.337.464l-1.9,6.113a.457.457,0,0,1-.464.337h-.337a.457.457,0,0,1-.464-.337l-1.307-4.342-1.307,4.342a.457.457,0,0,1-.464.337h-.337C440.073,238.714,439.9,238.629,439.862,238.377Z" transform="translate(-259.768 -231.674)"/>
        <path id="Path_77" data-name="Path 77" class="cls-3" d="M464.341,238.25l2.361-6.113a.493.493,0,0,1,.464-.337h.632a.457.457,0,0,1,.464.337l2.361,6.113c.126.3,0,.464-.337.464h-.464a.508.508,0,0,1-.506-.337l-.38-1.012h-2.993l-.379,1.012a.493.493,0,0,1-.464.337h-.464C464.383,238.714,464.215,238.545,464.341,238.25Zm4.342-1.9-1.18-3.2-1.18,3.2Z" transform="translate(-275.015 -231.674)"/>
        <path id="Path_78" data-name="Path 78" class="cls-3" d="M485.241,237.249a.345.345,0,0,1,.3-.506l.337-.084c.253-.042.379.042.506.3a1.522,1.522,0,0,0,1.349.674c.8,0,1.265-.379,1.265-.885,0-.422-.337-.717-.885-.927l-.97-.337a2.155,2.155,0,0,1-1.729-1.9,2.112,2.112,0,0,1,2.361-1.981,2.243,2.243,0,0,1,2.192,1.265.327.327,0,0,1-.253.506l-.337.084a.405.405,0,0,1-.548-.253,1.081,1.081,0,0,0-1.054-.548c-.548,0-1.054.3-1.054.843,0,.253.126.59.8.843l.97.337c1.265.422,1.771,1.138,1.771,1.939,0,1.307-1.054,2.066-2.529,2.066A2.464,2.464,0,0,1,485.241,237.249Z" transform="translate(-287.104 -231.558)"/>
        <path id="Path_79" data-name="Path 79" class="cls-3" d="M505,238.334v-6.113a.4.4,0,0,1,.422-.422h.464a.4.4,0,0,1,.422.422v2.656h2.867v-2.656a.4.4,0,0,1,.422-.422h.464a.4.4,0,0,1,.421.422v6.113a.4.4,0,0,1-.421.422H509.6a.4.4,0,0,1-.422-.422v-2.361h-2.867v2.361a.4.4,0,0,1-.422.422h-.464C505.127,238.714,505,238.587,505,238.334Z" transform="translate(-298.558 -231.674)"/>
      </g>
    </g>
    <text id="Get_Directions" data-name="Get Directions" class="cls-5" transform="translate(3009 61)"><tspan x="27.62" y="19">Get Directions</tspan></text>
    <path id="Union_7" data-name="Union 7" class="cls-6" d="M9.529,13.066V0l9.529,22.355ZM9.529,0V13.066L0,22.355Z" transform="matrix(0.719, 0.695, -0.695, 0.719, 3021.332, 57.766)"/>
    <g id="Group_73" data-name="Group 73" transform="translate(1899 59)">
      <text id="_504-305-0334" data-name="504-305-0334" class="cls-5" transform="translate(38 11)"><tspan x="0" y="19">504-305-0334</tspan></text>
      <g id="Group_7" data-name="Group 7" transform="translate(12.04 16.27) rotate(-22)">
        <path id="Path_6" data-name="Path 6" class="cls-6" d="M11.624,0H10v6.85h1.695c.636-.141.847-.494.706-1.2V1.056C12.33.279,12.048-.074,11.624,0Z" transform="translate(-2.938 0)"/>
        <path id="Path_7" data-name="Path 7" class="cls-6" d="M6.073,6.909V.2A8.929,8.929,0,0,0,1.412,5.143,20.139,20.139,0,0,0,0,11.641,17.128,17.128,0,0,0,1.412,18.35a9.949,9.949,0,0,0,4.661,4.661V16.3c-1.2-.071-1.766-1.836-1.695-5.367C4.167,8.463,4.732,7.191,6.073,6.909Z" transform="translate(0 -0.062)"/>
        <path id="Path_8" data-name="Path 8" class="cls-6" d="M12.4,23.956c-.071-.777-.353-1.13-.777-1.059H10v6.85h1.695a.875.875,0,0,0,.706-1.2Z" transform="translate(-2.938 -6.728)"/>
      </g>
    </g>
    <text id="_6489_Jefferson_Hwy._Harahan" data-name="6489 Jefferson Hwy.   |   Harahan" class="cls-5" transform="translate(2889 117)"><tspan x="0" y="0" xml:space="preserve">6489 Jefferson Hwy.   |   Harahan</tspan></text>
    <g id="Group_115" data-name="Group 115" transform="translate(-243 -236)">
      <line id="Line_2" data-name="Line 2" class="cls-7" x2="50.258" transform="translate(2160.5 258.5)"/>
      <line id="Line_3" data-name="Line 3" class="cls-7" x2="50.258" transform="translate(2160.5 272.605)"/>
      <line id="Line_4" data-name="Line 4" class="cls-7" x2="50.258" transform="translate(2160.5 286.71)"/>
    </g>
    <text id="_Mon-Sat_8am_-7pm_Sun_9am-6pm_" data-name=" Mon-Sat 8am -7pm  |  Sun 9am-6pm " class="cls-5" transform="translate(1911 120)"><tspan x="0" y="0" xml:space="preserve"> Mon-Sat 8am -7pm  |  Sun 9am-6pm </tspan></text>
  </g>
</svg>
